<?xml version="1.0" encoding="UTF-8"?>
<svg xmlns="http://www.w3.org/2000/svg" xmlns:xlink="http://www.w3.org/1999/xlink" width="5120px" height="px" viewBox="0 0 5120 5120" version="1.1">
<defs>
<linearGradient id="linear0" gradientUnits="userSpaceOnUse" x1="862.875671" y1="241.591553" x2="430.722809" y2="127.036942" gradientTransform="matrix(5,0,0,5,0,0)">
<stop offset="0" style="stop-color:rgb(1.960784%,50.196078%,76.862745%);stop-opacity:1;"/>
<stop offset="1" style="stop-color:rgb(3.137255%,59.215686%,84.705882%);stop-opacity:1;"/>
</linearGradient>
</defs>
<g id="surface1">
<rect x="0" y="0" width="5120" height="5120" style="fill:rgb(99.607843%,99.607843%,99.607843%);fill-opacity:1;stroke:none;"/>
<path style=" stroke:none;fill-rule:nonzero;fill:rgb(99.607843%,99.607843%,99.607843%);fill-opacity:1;" d="M 0 0 L 2032.726562 0 L 2032.796875 2129.691406 L 2032.75 2215.554688 C 2033.09375 2320.085938 2029.613281 2448.695312 2033.515625 2550.363281 C 2033.300781 2559.03125 2033.578125 2559.285156 2030.839844 2567.921875 C 2016.15625 2558.300781 1976.84375 2523.695312 1961.671875 2510.945312 C 1941.171875 2493.71875 1904.210938 2465.195312 1887.214844 2447.675781 C 1872.808594 2435.890625 1824.25 2393.25 1809.351562 2390.230469 C 1803.464844 2395.730469 1803.078125 2405.738281 1802.953125 2413.429688 C 1800.109375 2590.929688 1806.375 2769.703125 1802.371094 2947.054688 C 1712.410156 3075.949219 1661.179688 3163.558594 1629.363281 3322.515625 C 1624.363281 3347.488281 1614.40625 3443.683594 1610.660156 3454.359375 C 1656.570312 3470.179688 2037.269531 3603.046875 2047.328125 3617.324219 C 2043.753906 3626.609375 2046.539062 3623.070312 2039.550781 3628.980469 C 2014.800781 3634.550781 1962.023438 3635.394531 1935.035156 3637.246094 C 1845.460938 3643.390625 1748.925781 3641.773438 1659.863281 3649.980469 L 1659.789062 3825.523438 C 1441.90625 3850.640625 1070.355469 3919.886719 937.183594 4114.011719 C 913.871094 4116.820312 860.761719 4115.390625 835.523438 4115.328125 L 642.070312 4114.914062 L 0 4114.921875 Z M 0 0 "/>
<path style=" stroke:none;fill-rule:nonzero;fill:rgb(0.392157%,23.921569%,50.196081%);fill-opacity:1;" d="M 1564.621094 3461.695312 C 1503.328125 3437.855469 1434.449219 3418.234375 1372.546875 3394.609375 C 1357.554688 3388.890625 1339.148438 3390.214844 1333.769531 3372.738281 C 1336.890625 3367.523438 1335.246094 3368.066406 1340.210938 3365.714844 C 1344.640625 3363.558594 1350.164062 3363.046875 1354.878906 3364.699219 C 1381.144531 3373.898438 1407.394531 3383.515625 1433.601562 3392.855469 C 1492.320312 3414.203125 1551.34375 3434.710938 1610.660156 3454.359375 C 1656.570312 3470.179688 2037.269531 3603.046875 2047.328125 3617.324219 C 2043.753906 3626.609375 2046.539062 3623.070312 2039.550781 3628.980469 C 2014.800781 3634.550781 1962.023438 3635.394531 1935.035156 3637.246094 C 1845.460938 3643.390625 1748.925781 3641.773438 1659.863281 3649.980469 L 1659.789062 3825.523438 C 1441.90625 3850.640625 1070.355469 3919.886719 937.183594 4114.011719 C 913.871094 4116.820312 860.761719 4115.390625 835.523438 4115.328125 L 642.070312 4114.914062 L 0 4114.921875 L 0 3463.046875 C 328.125 3465.851562 656.265625 3466.550781 984.398438 3465.136719 L 1379.480469 3464.976562 C 1407.898438 3465.011719 1549.691406 3469.441406 1564.621094 3461.695312 Z M 1564.621094 3461.695312 "/>
<path style=" stroke:none;fill-rule:nonzero;fill:rgb(91.764706%,74.117649%,37.254903%);fill-opacity:1;" d="M 1564.621094 3461.695312 C 1673.136719 3498.113281 1817.445312 3544.773438 1920.234375 3588 L 1916.683594 3587.855469 C 1876.105469 3585.976562 1805.175781 3573.691406 1762.328125 3568.09375 C 1670.515625 3556.128906 1578.613281 3544.820312 1486.636719 3534.175781 C 1453.175781 3530.125 1420.441406 3525.320312 1387.363281 3518.925781 C 1379.925781 3517.484375 1360.65625 3521.761719 1357.398438 3529.886719 C 1367.589844 3547.660156 1489.496094 3556.316406 1513.15625 3559.359375 L 1763.378906 3590.640625 C 1824.5 3597.890625 1893.785156 3604.269531 1953.386719 3616.523438 C 1823.636719 3618.011719 1699.234375 3627.894531 1570.558594 3629.214844 L 0 3630.085938 L 0 3463.046875 C 328.125 3465.851562 656.265625 3466.550781 984.398438 3465.136719 L 1379.480469 3464.976562 C 1407.898438 3465.011719 1549.691406 3469.441406 1564.621094 3461.695312 Z M 1564.621094 3461.695312 "/>
<path style=" stroke:none;fill-rule:nonzero;fill:rgb(0.392157%,23.921569%,50.196081%);fill-opacity:1;" d="M 1887.519531 0 L 2032.726562 0 L 2032.796875 2129.691406 L 2032.75 2215.554688 C 2033.09375 2320.085938 2029.613281 2448.695312 2033.515625 2550.363281 C 2033.300781 2559.03125 2033.578125 2559.285156 2030.839844 2567.921875 C 2016.15625 2558.300781 1976.84375 2523.695312 1961.671875 2510.945312 C 1941.171875 2493.71875 1904.210938 2465.195312 1887.214844 2447.675781 Z M 1887.519531 0 "/>
<path style=" stroke:none;fill-rule:nonzero;fill:rgb(99.607843%,99.607843%,99.607843%);fill-opacity:1;" d="M 2032.726562 0 L 5120 0 L 5120 2129.085938 L 4442.066406 2130.378906 L 3257.265625 2130.328125 L 2491.976562 2131.03125 C 2342.703125 2131.25 2181.605469 2133.785156 2032.796875 2129.691406 Z M 2032.726562 0 "/>
<path style=" stroke:none;fill-rule:nonzero;fill:rgb(99.607843%,99.607843%,99.607843%);fill-opacity:1;" d="M 2340.140625 0 L 4130.214844 0 L 4129.839844 1825.070312 L 2339.710938 1820.046875 Z M 2340.140625 0 "/>
<path style=" stroke:none;fill-rule:nonzero;fill:rgb(99.607843%,99.607843%,99.607843%);fill-opacity:1;" d="M 4364.960938 0 L 5120 0 L 5120 1829.511719 L 4367.34375 1828.914062 Z M 4364.960938 0 "/>
<path style=" stroke:none;fill-rule:nonzero;fill:url(#linear0);" d="M 2315.714844 0 L 2340.140625 0 L 2339.710938 1820.046875 L 4129.839844 1825.070312 L 4130.214844 0 L 4153.625 0 L 4154.304688 1262.914062 L 4154.046875 1644.199219 C 4153.984375 1701.839844 4156.84375 1796.410156 4151.886719 1850.363281 C 3999.625 1847.105469 3841.703125 1849.121094 3689.230469 1848.953125 L 2816.425781 1846.175781 L 2474.988281 1843.324219 C 2433.984375 1842.808594 2355.71875 1844.984375 2319.179688 1840.355469 C 2315.03125 1834.40625 2315.523438 1835.519531 2315.46875 1826.78125 C 2315.066406 1760.898438 2315.214844 1694.546875 2315.113281 1628.699219 L 2314.730469 1220.726562 Z M 2315.714844 0 "/>
<path style=" stroke:none;fill-rule:nonzero;fill:rgb(0%,52.941179%,79.607844%);fill-opacity:1;" d="M 4342.308594 0 L 4364.960938 0 L 4367.34375 1828.914062 L 5120 1829.511719 L 5120 1852.644531 L 4590.074219 1852.636719 L 4446.179688 1853.050781 C 4416.914062 1853.34375 4373.929688 1855.460938 4346.164062 1851.804688 C 4340.886719 1830.796875 4342.746094 1725.09375 4342.769531 1695.355469 L 4342.375 1411.191406 Z M 4342.308594 0 "/>
<path style=" stroke:none;fill-rule:nonzero;fill:rgb(0%,52.941179%,79.607844%);fill-opacity:1;" d="M 1285.304688 4098.304688 C 1302.65625 4085.375 1349.851562 4065.296875 1372.015625 4065.410156 C 1431.40625 4073.015625 1450.714844 4065.695312 1507.355469 4095.820312 L 1513.15625 4087.449219 C 1534.265625 4098.539062 1545.351562 4106.679688 1564.664062 4120.90625 C 1643.871094 4115.59375 1763.480469 4119.109375 1845.839844 4119.121094 L 2349.441406 4119.199219 L 3522.140625 4117.28125 L 4029.34375 4115.84375 C 4103.136719 4115.589844 4185.796875 4117.929688 4258.613281 4115.960938 C 4344.875 4114.058594 4437.921875 4117.464844 4525.398438 4117.585938 L 5120 4117.511719 L 5120 5120 L 0 5120 L 0 4114.921875 L 642.070312 4114.914062 L 835.523438 4115.328125 C 860.761719 4115.390625 913.871094 4116.820312 937.183594 4114.011719 C 1026.589844 4110.273438 1118.355469 4115.59375 1207.980469 4114.886719 C 1224.105469 4114.753906 1241.199219 4114.925781 1257.253906 4115.996094 C 1264.066406 4113.015625 1278.484375 4102.839844 1285.304688 4098.304688 Z M 1285.304688 4098.304688 "/>
<path style=" stroke:none;fill-rule:nonzero;fill:rgb(81.960785%,20%,25.882354%);fill-opacity:1;" d="M 1285.304688 4098.304688 C 1302.65625 4085.375 1349.851562 4065.296875 1372.015625 4065.410156 C 1431.40625 4073.015625 1450.714844 4065.695312 1507.355469 4095.820312 L 1513.15625 4087.449219 C 1534.265625 4098.539062 1545.351562 4106.679688 1564.664062 4120.90625 L 1587.984375 4145.195312 C 1630.683594 4183.738281 1646.773438 4237.875 1649.789062 4293.578125 L 1649.933594 4296.511719 L 1647.980469 4314.054688 C 1644.546875 4316.785156 1638.050781 4321.949219 1637.210938 4325.851562 C 1630.554688 4356.628906 1629.578125 4373.121094 1618.03125 4402.550781 L 1605.640625 4396.226562 C 1588.210938 4440.605469 1579.011719 4455.515625 1547.785156 4492.101562 C 1521.058594 4512.03125 1508.464844 4517.601562 1477.460938 4530.710938 C 1409.433594 4556.941406 1295.601562 4536.480469 1247.386719 4480.546875 C 1132.425781 4391.519531 1141.796875 4205.433594 1254.855469 4119.910156 L 1257.253906 4115.996094 C 1264.066406 4113.015625 1278.484375 4102.839844 1285.304688 4098.304688 Z M 1285.304688 4098.304688 "/>
<path style=" stroke:none;fill-rule:nonzero;fill:rgb(0.392157%,9.019608%,32.156864%);fill-opacity:1;" d="M 1285.304688 4098.304688 C 1302.65625 4085.375 1349.851562 4065.296875 1372.015625 4065.410156 C 1431.40625 4073.015625 1450.714844 4065.695312 1507.355469 4095.820312 L 1513.15625 4087.449219 C 1534.265625 4098.539062 1545.351562 4106.679688 1564.664062 4120.90625 L 1587.984375 4145.195312 C 1630.683594 4183.738281 1646.773438 4237.875 1649.789062 4293.578125 L 1649.933594 4296.511719 L 1647.980469 4314.054688 C 1644.546875 4316.785156 1638.050781 4321.949219 1637.210938 4325.851562 C 1630.554688 4356.628906 1629.578125 4373.121094 1618.03125 4402.550781 L 1605.640625 4396.226562 C 1588.210938 4440.605469 1579.011719 4455.515625 1547.785156 4492.101562 C 1521.058594 4512.03125 1508.464844 4517.601562 1477.460938 4530.710938 C 1409.433594 4556.941406 1295.601562 4536.480469 1247.386719 4480.546875 C 1285.121094 4500.425781 1296.085938 4518.023438 1342.335938 4527.199219 C 1451.035156 4548.765625 1496.539062 4483.71875 1514.425781 4389.175781 C 1508.761719 4390.453125 1503.078125 4391.695312 1497.398438 4392.898438 C 1440.039062 4405.074219 1341.109375 4413.003906 1290.113281 4377.878906 C 1283.476562 4373.304688 1282.769531 4371.769531 1281.484375 4365.34375 C 1289.085938 4357.996094 1313.976562 4365.101562 1325.035156 4367.785156 C 1397.289062 4385.324219 1444.691406 4378.128906 1515.660156 4363.234375 C 1505.246094 4265.761719 1458.359375 4182.226562 1366.445312 4138.886719 C 1328.628906 4121.054688 1295.710938 4120.601562 1254.855469 4119.910156 L 1257.253906 4115.996094 C 1264.066406 4113.015625 1278.484375 4102.839844 1285.304688 4098.304688 Z M 1285.304688 4098.304688 "/>
<path style=" stroke:none;fill-rule:nonzero;fill:rgb(81.960785%,20%,25.882354%);fill-opacity:1;" d="M 1285.304688 4098.304688 C 1302.65625 4085.375 1349.851562 4065.296875 1372.015625 4065.410156 C 1431.40625 4073.015625 1450.714844 4065.695312 1507.355469 4095.820312 C 1580.488281 4143.359375 1616.046875 4221.566406 1617.75 4307.609375 C 1593.839844 4334.265625 1567.589844 4344.058594 1535.683594 4358.058594 C 1522.609375 4217.308594 1433.71875 4102.410156 1285.304688 4098.304688 Z M 1285.304688 4098.304688 "/>
<path style=" stroke:none;fill-rule:nonzero;fill:rgb(81.960785%,20%,25.882354%);fill-opacity:1;" d="M 1537.59375 4382.34375 C 1571.796875 4369.035156 1589.035156 4361.773438 1619.675781 4342.164062 C 1615.53125 4362.914062 1611.945312 4375.933594 1605.640625 4396.226562 C 1588.210938 4440.605469 1579.011719 4455.515625 1547.785156 4492.101562 C 1521.058594 4512.03125 1508.464844 4517.601562 1477.460938 4530.710938 C 1470.640625 4531.269531 1473.019531 4531.570312 1466.441406 4529.910156 C 1469.378906 4521.636719 1483.113281 4514.328125 1491.160156 4505.445312 C 1523.585938 4469.621094 1530.363281 4427.695312 1537.59375 4382.34375 Z M 1537.59375 4382.34375 "/>
<path style=" stroke:none;fill-rule:nonzero;fill:rgb(81.960785%,20%,25.882354%);fill-opacity:1;" d="M 1587.984375 4145.195312 C 1630.683594 4183.738281 1646.773438 4237.875 1649.789062 4293.578125 L 1649.933594 4296.511719 L 1640.609375 4298.515625 L 1636.648438 4295.480469 C 1627.910156 4267.34375 1633.441406 4252.195312 1620.34375 4219.695312 C 1613.234375 4202.046875 1588.519531 4157.613281 1587.984375 4145.195312 Z M 1587.984375 4145.195312 "/>
<path style=" stroke:none;fill-rule:nonzero;fill:rgb(99.607843%,99.607843%,99.607843%);fill-opacity:1;" d="M 1212.605469 4205.96875 C 1213.621094 4206.664062 1218.113281 4210.695312 1218.136719 4211.40625 C 1219.390625 4256.019531 1230.140625 4292.429688 1249.46875 4331.691406 C 1281.308594 4396.351562 1330.605469 4422.316406 1399.714844 4432.378906 C 1413.960938 4434.453125 1438.160156 4434.839844 1450.890625 4438.675781 L 1446.960938 4442.238281 C 1335.699219 4465.464844 1225.808594 4410.90625 1209.230469 4290.746094 C 1205.726562 4265.324219 1204.445312 4230.375 1212.605469 4205.96875 Z M 1212.605469 4205.96875 "/>
<path style=" stroke:none;fill-rule:nonzero;fill:rgb(0.392157%,9.019608%,32.156864%);fill-opacity:1;" d="M 1547.785156 4492.101562 C 1579.011719 4455.515625 1588.210938 4440.605469 1605.640625 4396.226562 L 1618.03125 4402.550781 C 1614.710938 4411.050781 1608.253906 4426.039062 1606.820312 4434.429688 C 1590.398438 4458.195312 1573.105469 4477.28125 1547.785156 4492.101562 Z M 1547.785156 4492.101562 "/>
<path style=" stroke:none;fill-rule:nonzero;fill:rgb(81.960785%,20%,25.882354%);fill-opacity:1;" d="M 1618.03125 4402.550781 C 1629.578125 4373.121094 1630.554688 4356.628906 1637.210938 4325.851562 C 1638.050781 4321.949219 1644.546875 4316.785156 1647.980469 4314.054688 C 1648.890625 4355.304688 1634.226562 4403.519531 1606.820312 4434.429688 C 1608.253906 4426.039062 1614.710938 4411.050781 1618.03125 4402.550781 Z M 1618.03125 4402.550781 "/>
<path style=" stroke:none;fill-rule:nonzero;fill:rgb(0.392157%,9.019608%,32.156864%);fill-opacity:1;" d="M 748.296875 4224.410156 C 880.710938 4205.746094 1003.121094 4298.128906 1021.488281 4430.585938 C 1039.855469 4563.039062 947.203125 4685.25 814.710938 4703.324219 C 682.625 4721.351562 560.878906 4629.046875 542.570312 4497.003906 C 524.253906 4364.960938 616.289062 4243.011719 748.296875 4224.410156 Z M 748.296875 4224.410156 "/>
<path style=" stroke:none;fill-rule:nonzero;fill:rgb(99.607843%,99.607843%,99.607843%);fill-opacity:1;" d="M 815.683594 4288.070312 C 975.066406 4278.625 1055.148438 4507.734375 926.386719 4617.90625 C 946.144531 4579.550781 966.28125 4559.84375 975.289062 4514.03125 C 984.089844 4467.46875 974.066406 4419.320312 947.410156 4380.140625 C 901.414062 4311.683594 834.253906 4281.101562 759.90625 4331.769531 C 664.035156 4412.34375 652.789062 4539.023438 729.683594 4638.300781 C 740.488281 4652.253906 758.265625 4664.164062 766.851562 4676.410156 L 763.761719 4678.128906 C 757.074219 4677.023438 746.199219 4674.71875 740.96875 4670.359375 C 614.484375 4564.96875 643.410156 4325.789062 815.683594 4288.070312 Z M 815.683594 4288.070312 "/>
<path style=" stroke:none;fill-rule:nonzero;fill:rgb(91.764706%,74.117649%,37.254903%);fill-opacity:1;" d="M 1802.371094 2947.054688 C 1806.375 2769.703125 1800.109375 2590.929688 1802.953125 2413.429688 C 1803.078125 2405.738281 1803.464844 2395.730469 1809.351562 2390.230469 C 1824.25 2393.25 1872.808594 2435.890625 1887.214844 2447.675781 C 1904.210938 2465.195312 1941.171875 2493.71875 1961.671875 2510.945312 C 1976.84375 2523.695312 2016.15625 2558.300781 2030.839844 2567.921875 C 2033.578125 2559.285156 2033.300781 2559.03125 2033.515625 2550.363281 L 2034.175781 2574.015625 C 2072.734375 2605.671875 2115.054688 2641.453125 2155.253906 2670.410156 C 2205.019531 2637.199219 2257.433594 2601.335938 2311.371094 2575.378906 C 2536.503906 2467.046875 2847.550781 2502.050781 3035.019531 2673.65625 C 3109.078125 2619.359375 3180.753906 2562.476562 3252.761719 2505.53125 C 3301.675781 2466.84375 3353.554688 2428.324219 3401.414062 2388.535156 C 3400.390625 2509.21875 3400.128906 2629.910156 3400.636719 2750.601562 C 3400.683594 2813.625 3398.519531 2889.355469 3400.910156 2951.136719 C 3533.808594 3094.734375 3576.140625 3263.738281 3585.101562 3453.96875 C 3535.273438 3469.839844 3188.425781 3586.886719 3179.199219 3602.339844 C 3176.140625 3607.46875 3176.238281 3615.589844 3178.164062 3621.109375 C 3179.820312 3625.84375 3182.234375 3627.785156 3186.035156 3630.699219 C 3211.019531 3635.679688 3285.59375 3638.316406 3313.800781 3640.023438 C 3399.941406 3645.535156 3486.109375 3650.605469 3572.300781 3655.25 C 3571.238281 3709.019531 3565.859375 3763.703125 3560.296875 3817.15625 C 3762.023438 3836.554688 3986.914062 3901.253906 4157.515625 4015.398438 C 4198.085938 4042.546875 4228.378906 4078.140625 4258.613281 4115.960938 C 4185.796875 4117.929688 4103.136719 4115.589844 4029.34375 4115.84375 L 3522.140625 4117.28125 L 2349.441406 4119.199219 L 1845.839844 4119.121094 C 1763.480469 4119.109375 1643.871094 4115.59375 1564.664062 4120.90625 C 1545.351562 4106.679688 1534.265625 4098.539062 1513.15625 4087.449219 L 1507.355469 4095.820312 C 1450.714844 4065.695312 1431.40625 4073.015625 1372.015625 4065.410156 C 1349.851562 4065.296875 1302.65625 4085.375 1285.304688 4098.304688 C 1278.484375 4102.839844 1264.066406 4113.015625 1257.253906 4115.996094 C 1241.199219 4114.925781 1224.105469 4114.753906 1207.980469 4114.886719 C 1118.355469 4115.59375 1026.589844 4110.273438 937.183594 4114.011719 C 1070.355469 3919.886719 1441.90625 3850.640625 1659.789062 3825.523438 L 1659.863281 3649.980469 C 1748.925781 3641.773438 1845.460938 3643.390625 1935.035156 3637.246094 C 1962.023438 3635.394531 2014.800781 3634.550781 2039.550781 3628.980469 C 2046.539062 3623.070312 2043.753906 3626.609375 2047.328125 3617.324219 C 2037.269531 3603.046875 1656.570312 3470.179688 1610.660156 3454.359375 C 1614.40625 3443.683594 1624.363281 3347.488281 1629.363281 3322.515625 C 1661.179688 3163.558594 1712.410156 3075.949219 1802.371094 2947.054688 Z M 1802.371094 2947.054688 "/>
<path style=" stroke:none;fill-rule:nonzero;fill:rgb(0%,3.921569%,22.745098%);fill-opacity:1;" d="M 1372.015625 4065.410156 C 1414.929688 4056.628906 1474.824219 4067.191406 1513.15625 4087.449219 L 1507.355469 4095.820312 C 1450.714844 4065.695312 1431.40625 4073.015625 1372.015625 4065.410156 Z M 1372.015625 4065.410156 "/>
<path style=" stroke:none;fill-rule:nonzero;fill:rgb(99.607843%,99.607843%,99.607843%);fill-opacity:1;" d="M 3002.15625 2859.359375 C 3195.375 2834.429688 3372.269531 2970.714844 3397.449219 3163.898438 C 3422.636719 3357.085938 3286.585938 3534.160156 3093.429688 3559.59375 C 2899.921875 3585.078125 2722.441406 3448.71875 2697.214844 3255.175781 C 2671.984375 3061.628906 2808.574219 2884.335938 3002.15625 2859.359375 Z M 3002.15625 2859.359375 "/>
<path style=" stroke:none;fill-rule:nonzero;fill:rgb(0.392157%,9.019608%,32.156864%);fill-opacity:1;" d="M 2945.578125 2986.226562 C 3084.785156 2970.910156 3209.921875 3071.660156 3224.671875 3210.925781 C 3239.421875 3350.191406 3138.160156 3474.914062 2998.835938 3489.09375 C 2860.316406 3503.195312 2736.460938 3402.644531 2721.796875 3264.179688 C 2707.128906 3125.71875 2807.175781 3001.453125 2945.578125 2986.226562 Z M 2945.578125 2986.226562 "/>
<path style=" stroke:none;fill-rule:nonzero;fill:rgb(99.607843%,99.607843%,99.607843%);fill-opacity:1;" d="M 2874.988281 3076.878906 C 2909.996094 3071.25 2942.890625 3095.199219 2948.273438 3130.246094 C 2953.664062 3165.285156 2929.484375 3198.015625 2894.40625 3203.15625 C 2859.671875 3208.25 2827.328125 3184.359375 2821.996094 3149.660156 C 2816.660156 3114.953125 2840.328125 3082.453125 2874.988281 3076.878906 Z M 2874.988281 3076.878906 "/>
<path style=" stroke:none;fill-rule:nonzero;fill:rgb(99.607843%,99.607843%,99.607843%);fill-opacity:1;" d="M 2135.691406 2860.960938 C 2329.164062 2856.816406 2489.578125 3009.871094 2494.523438 3203.324219 C 2499.464844 3396.78125 2347.074219 3557.824219 2153.644531 3563.570312 C 1959.078125 3569.34375 1796.878906 3415.863281 1791.910156 3221.28125 C 1786.941406 3026.691406 1941.085938 2865.128906 2135.691406 2860.960938 Z M 2135.691406 2860.960938 "/>
<path style=" stroke:none;fill-rule:nonzero;fill:rgb(0.392157%,9.019608%,32.156864%);fill-opacity:1;" d="M 2202.804688 2992.265625 C 2339.550781 2980.519531 2460.113281 3081.398438 2472.675781 3218.074219 C 2485.230469 3354.746094 2385.070312 3475.910156 2248.46875 3489.28125 C 2110.726562 3502.761719 1988.316406 3401.566406 1975.648438 3263.738281 C 1962.984375 3125.914062 2064.90625 3004.109375 2202.804688 2992.265625 Z M 2202.804688 2992.265625 "/>
<path style=" stroke:none;fill-rule:nonzero;fill:rgb(99.607843%,99.607843%,99.607843%);fill-opacity:1;" d="M 2129.449219 3074.003906 C 2163.476562 3068.398438 2195.679688 3091.214844 2201.679688 3125.171875 C 2207.679688 3159.128906 2185.246094 3191.59375 2151.359375 3197.988281 C 2129.085938 3202.195312 2106.269531 3194.101562 2091.625 3176.800781 C 2076.980469 3159.496094 2072.769531 3135.65625 2080.59375 3114.386719 C 2088.425781 3093.109375 2107.085938 3077.691406 2129.449219 3074.003906 Z M 2129.449219 3074.003906 "/>
<path style=" stroke:none;fill-rule:nonzero;fill:rgb(0.392157%,9.019608%,32.156864%);fill-opacity:1;" d="M 2582.964844 3415.550781 C 2635.394531 3410.789062 2682.488281 3425.21875 2697.855469 3480.429688 C 2688.070312 3522.816406 2645.605469 3577.320312 2618.910156 3612.613281 C 2647.890625 3686.210938 2715.796875 3705.214844 2754.28125 3633.144531 C 2758.636719 3624.988281 2772.683594 3621.023438 2781.246094 3628.136719 C 2790.105469 3681.933594 2677.628906 3751.390625 2610.414062 3656.53125 C 2605.816406 3648.808594 2605.535156 3647.839844 2599.105469 3641.136719 C 2587.859375 3658.589844 2580.558594 3671.363281 2562.679688 3683.183594 C 2519.175781 3712.21875 2456.09375 3704.824219 2426.699219 3659.355469 C 2420.035156 3649.046875 2405.703125 3622.914062 2421.464844 3615.554688 C 2445.816406 3620.925781 2445.761719 3654.75 2470.09375 3667.386719 C 2520.519531 3693.570312 2606.304688 3649.273438 2564.996094 3587.988281 C 2518.066406 3518.363281 2458.660156 3444.171875 2582.964844 3415.550781 Z M 2582.964844 3415.550781 "/>
<path style=" stroke:none;fill-rule:nonzero;fill:rgb(0.392157%,9.019608%,32.156864%);fill-opacity:1;" d="M 3044.714844 2708.011719 C 3050.820312 2711.871094 3051.859375 2720.503906 3054.664062 2728.910156 C 2995.183594 2744.835938 2935.230469 2759.308594 2876.269531 2777.066406 L 2873.804688 2776.613281 C 2869.984375 2771.171875 2867.140625 2761.035156 2870.238281 2754.90625 C 2913.410156 2739.566406 2996.976562 2720.859375 3044.714844 2708.011719 Z M 3044.714844 2708.011719 "/>
<path style=" stroke:none;fill-rule:nonzero;fill:rgb(0.392157%,9.019608%,32.156864%);fill-opacity:1;" d="M 2167.144531 2705.90625 C 2220.265625 2727.734375 2294.355469 2738.203125 2343.066406 2757.769531 C 2345.84375 2764.738281 2342.765625 2772.441406 2340.941406 2780.261719 C 2283.546875 2763.179688 2216.773438 2743.648438 2158.953125 2729.5 Z M 2167.144531 2705.90625 "/>
<path style=" stroke:none;fill-rule:nonzero;fill:rgb(0.392157%,23.921569%,50.196081%);fill-opacity:1;" d="M 4200.46875 3624.128906 L 4379.828125 3656.910156 C 4397.75 3660.140625 4448.566406 3667.726562 4462.160156 3672.121094 C 4470.121094 3678.066406 4532.664062 3675.859375 4545.976562 3675.851562 L 4687.238281 3675.644531 L 5120 3675.144531 L 5120 4117.511719 L 4525.398438 4117.585938 C 4437.921875 4117.464844 4344.875 4114.058594 4258.613281 4115.960938 C 4228.378906 4078.140625 4198.085938 4042.546875 4157.515625 4015.398438 C 3986.914062 3901.253906 3762.023438 3836.554688 3560.296875 3817.15625 C 3565.859375 3763.703125 3571.238281 3709.019531 3572.300781 3655.25 L 3572.300781 3650.585938 C 3572.375 3639.703125 3573.449219 3638.480469 3567.671875 3629.730469 C 3583.320312 3624.761719 3670.410156 3627.011719 3694.214844 3627.023438 L 4036.796875 3626.761719 C 4073.734375 3626.613281 4170.683594 3628.125 4200.46875 3624.128906 Z M 4200.46875 3624.128906 "/>
<path style=" stroke:none;fill-rule:nonzero;fill:rgb(91.764706%,74.117649%,37.254903%);fill-opacity:1;" d="M 2032.796875 2129.691406 C 2181.605469 2133.785156 2342.703125 2131.25 2491.976562 2131.03125 L 3257.265625 2130.328125 L 4442.066406 2130.378906 L 5120 2129.085938 L 5120 2217.230469 L 2032.75 2215.554688 Z M 2032.796875 2129.691406 "/>
<path style=" stroke:none;fill-rule:nonzero;fill:rgb(91.764706%,74.117649%,37.254903%);fill-opacity:1;" d="M 3585.101562 3453.96875 C 3620.828125 3441.664062 3842.820312 3362.191406 3863.40625 3364.300781 L 3868.449219 3369.046875 C 3864.375 3384.128906 3847.414062 3389.550781 3834.058594 3394.058594 C 3777.503906 3413.144531 3720.25 3432.484375 3664.25 3453.046875 C 3672.46875 3457.71875 3678.980469 3457.476562 3688.566406 3457.359375 C 3770.761719 3456.386719 3852.859375 3455.09375 3935.078125 3454.925781 L 4409.511719 3457.121094 C 4423.378906 3447.859375 4445.808594 3428.90625 4459.566406 3418 C 4465.574219 3432.769531 4461.949219 3640.09375 4462.160156 3672.121094 C 4448.566406 3667.726562 4397.75 3660.140625 4379.828125 3656.910156 L 4200.46875 3624.128906 C 4170.683594 3628.125 4073.734375 3626.613281 4036.796875 3626.761719 L 3694.214844 3627.023438 C 3670.410156 3627.011719 3583.320312 3624.761719 3567.671875 3629.730469 C 3573.449219 3638.480469 3572.375 3639.703125 3572.300781 3650.585938 L 3572.300781 3655.25 C 3486.109375 3650.605469 3399.941406 3645.535156 3313.800781 3640.023438 C 3285.59375 3638.316406 3211.019531 3635.679688 3186.035156 3630.699219 C 3182.234375 3627.785156 3179.820312 3625.84375 3178.164062 3621.109375 C 3176.238281 3615.589844 3176.140625 3607.46875 3179.199219 3602.339844 C 3188.425781 3586.886719 3535.273438 3469.839844 3585.101562 3453.96875 Z M 3585.101562 3453.96875 "/>
<path style=" stroke:none;fill-rule:nonzero;fill:rgb(0.392157%,9.019608%,32.156864%);fill-opacity:1;" d="M 3585.101562 3453.96875 C 3620.828125 3441.664062 3842.820312 3362.191406 3863.40625 3364.300781 L 3868.449219 3369.046875 C 3864.375 3384.128906 3847.414062 3389.550781 3834.058594 3394.058594 C 3777.503906 3413.144531 3720.25 3432.484375 3664.25 3453.046875 C 3607.105469 3468.199219 3522.480469 3500.851562 3465.585938 3520.746094 C 3419.753906 3536.769531 3334.519531 3564.5 3293.914062 3583.445312 C 3343.71875 3575.960938 3823.574219 3519.449219 3845.519531 3527.734375 C 3847.96875 3535.34375 3847.671875 3535.101562 3847.398438 3543.203125 C 3830.976562 3551.238281 3755.398438 3556.351562 3731.566406 3558.730469 C 3626.746094 3568.90625 3522 3579.863281 3417.339844 3591.601562 C 3379.683594 3595.839844 3293.324219 3603.496094 3259.675781 3613.96875 C 3326 3615.519531 3389.738281 3620.210938 3455.785156 3624.378906 C 3488.949219 3626.476562 3535.070312 3630.648438 3567.671875 3629.730469 C 3573.449219 3638.480469 3572.375 3639.703125 3572.300781 3650.585938 L 3572.300781 3655.25 C 3486.109375 3650.605469 3399.941406 3645.535156 3313.800781 3640.023438 C 3285.59375 3638.316406 3211.019531 3635.679688 3186.035156 3630.699219 C 3182.234375 3627.785156 3179.820312 3625.84375 3178.164062 3621.109375 C 3176.238281 3615.589844 3176.140625 3607.46875 3179.199219 3602.339844 C 3188.425781 3586.886719 3535.273438 3469.839844 3585.101562 3453.96875 Z M 3585.101562 3453.96875 "/>
<path style=" stroke:none;fill-rule:nonzero;fill:rgb(0.392157%,9.019608%,32.156864%);fill-opacity:1;" d="M 4459.566406 3418 C 4465.574219 3432.769531 4461.949219 3640.09375 4462.160156 3672.121094 C 4448.566406 3667.726562 4397.75 3660.140625 4379.828125 3656.910156 L 4200.46875 3624.128906 C 4261.359375 3578.941406 4351.625 3506.175781 4409.511719 3457.121094 C 4423.378906 3447.859375 4445.808594 3428.90625 4459.566406 3418 Z M 4459.566406 3418 "/>
<path style=" stroke:none;fill-rule:nonzero;fill:rgb(81.960785%,20%,25.882354%);fill-opacity:1;" d="M 5120 3407.621094 L 5120 3675.144531 L 4687.238281 3675.644531 L 4545.976562 3675.851562 C 4532.664062 3675.859375 4470.121094 3678.066406 4462.160156 3672.121094 C 4461.949219 3640.09375 4465.574219 3432.769531 4459.566406 3418 C 4460.890625 3416.453125 4468.144531 3408.425781 4469.164062 3408.425781 C 4685.90625 3408.65625 4903.289062 3408.234375 5120 3407.621094 Z M 5120 3407.621094 "/>
</g>
</svg>
