<?xml version="1.0" encoding="UTF-8"?>
<svg version="1.1" xmlns="http://www.w3.org/2000/svg" width="531" height="578">
<path d="M0 0 C175.23 0 350.46 0 531 0 C531 190.74 531 381.48 531 578 C355.77 578 180.54 578 0 578 C0 387.26 0 196.52 0 0 Z " fill="#002A59" transform="translate(0,0)"/>
<path d="M0 0 C175.23 0 350.46 0 531 0 C531 190.74 531 381.48 531 578 C442.89 578 354.78 578 264 578 C268.49568176 572.3803978 268.49568176 572.3803978 271.3125 570.46484375 C271.91320312 570.04783203 272.51390625 569.63082031 273.1328125 569.20117188 C274.05707031 568.5756543 274.05707031 568.5756543 275 567.9375 C279.03330989 565.18252996 282.5396574 562.46835265 286 559 C286.66 559 287.32 559 288 559 C288 558.34 288 557.68 288 557 C288.66 557.33 289.32 557.66 290 558 C288.85657478 560.31371943 287.71038936 562.62599677 286.5625 564.9375 C286.23701172 565.59685547 285.91152344 566.25621094 285.57617188 566.93554688 C283.11328125 571.88671875 283.11328125 571.88671875 282 573 C321.27 573.33 360.54 573.66 401 574 C401 571.36 401 568.72 401 566 C403.30965987 541.94783181 410.48274582 518.33904147 417.6875 495.375 C417.92147491 494.62801849 418.15544983 493.88103699 418.39651489 493.11141968 C420.96461007 484.95032848 423.63687224 476.8763283 427 469 C427.33 469 427.66 469 428 469 C428.08975098 469.62229492 428.17950195 470.24458984 428.27197266 470.88574219 C431.8722664 495.32111068 437.54431527 519.59687738 451.90234375 540.234375 C453.64270326 542.99555567 453.99668453 543.88846746 454.09765625 547.28515625 C452.55858389 552.49390292 450.5598774 557.44195013 448.4375 562.4375 C448.01275391 563.45521484 447.58800781 564.47292969 447.15039062 565.52148438 C446.10747277 568.01745631 445.05720058 570.51005214 444 573 C466.96713986 569.32682624 488.9113875 557.07667227 503.21630859 538.41308594 C519.92496818 515.17983396 523.19410039 488.95744986 518.8684082 461.05517578 C515.06626716 439.92046401 506.53105059 415.53105059 491 400 C491.01813642 397.29162816 491.15125939 394.69275756 491.375 392 C491.48532826 390.35961039 491.59199758 388.71897125 491.6953125 387.078125 C491.77507324 385.81452148 491.77507324 385.81452148 491.85644531 384.52539062 C493.30535024 359.03649162 487.5655595 337.3795372 470.625 317.75 C457.79629458 304.09081621 441.44247068 295.25548542 422.63671875 293.7265625 C418.88051434 293.67883436 415.30207997 293.73574809 411.61328125 294.484375 C408.08956724 295.19772723 405.97451358 295.53970457 402.75 293.75390625 C401.10216943 292.53700505 399.4702725 291.29834601 397.8515625 290.04296875 C383.70395655 279.9070812 363.30898826 273.90101662 346 275 C345.34 275.66 344.68 276.32 344 277 C341.625 277 341.625 277 339 276 C335.96044571 272.26569044 334.31679428 268.60877999 333 264 C332.01 264 331.02 264 330 264 C329.79246094 264.92039062 329.58492188 265.84078125 329.37109375 266.7890625 C326.52923996 278.46563331 322.38320399 293.54369833 311.75 300.5 C301.56608201 306.49277111 289.67087962 308.78017179 278 309 C278.845625 308.05125 279.69125 307.1025 280.5625 306.125 C288.4271538 296.87031437 294.36717469 286.51919726 300.31494141 275.98046875 C301.84191611 273.27961288 303.38121055 270.58606382 304.92219543 267.89318848 C313.42841443 252.98951733 321.0705139 238.15683776 327 222 C327.33 222 327.66 222 328 222 C328 228.93 328 235.86 328 243 C329.711875 241.948125 331.42375 240.89625 333.1875 239.8125 C334.15042969 239.22082031 335.11335938 238.62914062 336.10546875 238.01953125 C339.25666126 235.82092595 341.66730461 234.07472281 344 231 C344.30417253 227.81252541 344.28628949 225.27211412 344 222.125 C343.93748047 221.19228271 343.87496094 220.25956543 343.81054688 219.29858398 C343.57082252 215.86280479 343.28656854 212.43218899 343 209 C342.55969282 203.52754316 342.12980061 198.05424628 341.6991272 192.58102417 C341.56634893 190.90166909 341.43237621 189.22240803 341.29721069 187.54324341 C339.99780815 171.36887991 339.32190971 155.22175927 339 139 C335.86600853 137.46329045 332.73185819 135.92690523 329.59765625 134.390625 C328.62093964 133.91183899 327.64422302 133.43305298 326.63790894 132.9397583 C321.27875672 130.31348059 315.91815305 127.69022441 310.55493164 125.07226562 C308.40380479 124.02214321 306.25268171 122.97201306 304.1015625 121.921875 C303.04285446 121.40512207 301.98414642 120.88836914 300.89335632 120.35595703 C295.71839455 117.82737936 290.55004206 115.28736514 285.40107727 112.70623779 C283.6186701 111.81333223 281.83274418 110.92746091 280.04663086 110.04199219 C278.03595795 109.04478684 276.03107754 108.03577759 274.03344727 107.01269531 C270.55292418 105.30101559 267.92211499 104.02417077 264.01953125 103.921875 C259.43541811 105.55863467 255.11409584 107.59977399 250.75 109.75 C249.709646 110.25499023 248.66929199 110.75998047 247.59741211 111.28027344 C240.06508858 114.95530339 232.57325739 118.7108157 225.08203125 122.46875 C224.13514435 122.94346741 223.18825745 123.41818481 222.212677 123.9072876 C217.41980794 126.31110749 212.62990614 128.72055567 207.84472656 131.13964844 C206.06448928 132.0358791 204.28421739 132.93204105 202.50390625 133.828125 C201.67478226 134.24944702 200.84565826 134.67076904 199.9914093 135.1048584 C199.23055527 135.48694458 198.46970123 135.86903076 197.68579102 136.26269531 C197.01951187 136.5995636 196.35323273 136.93643188 195.66676331 137.2835083 C194 138 194 138 192 138 C192.01047363 138.84667236 192.02094727 139.69334473 192.03173828 140.56567383 C192.31825566 167.61255178 191.90097576 194.75258422 188.3671875 221.609375 C187.78952435 226.80006954 187.78952435 226.80006954 188 232 C190.15142522 234.44547057 190.15142522 234.44547057 193 236.375 C197.76005993 240.40014983 197.76005993 240.40014983 198.8046875 243.01171875 C198.89016081 245.50469043 198.54029918 247.5564534 198 250 C197.87189941 250.62986816 197.74379883 251.25973633 197.61181641 251.90869141 C194.65430285 266.22597148 194.65430285 266.22597148 191 269 C188.39499083 270.0182173 185.84688533 270.91034686 183.18359375 271.7421875 C182.41249771 271.99243683 181.64140167 272.24268616 180.84693909 272.5005188 C178.379825 273.30069503 175.9091924 274.08908903 173.4375 274.875 C158.81078739 279.43569169 158.81078739 279.43569169 145 286 C145.5882959 286.38865234 146.1765918 286.77730469 146.78271484 287.17773438 C164.16634487 298.68297936 164.16634487 298.68297936 169 304 C165.19654826 302.77870816 161.50067918 301.40049878 157.80224609 299.89306641 C133.17939905 290.08011013 107.58731598 288.62145423 82.75 298.3125 C60.99869012 308.05802616 45.2475062 323.83000462 36 346 C33.23667934 353.87011487 30.78802978 362.00286102 31.03515625 370.38671875 C31.21202097 388.09284278 31.21202097 388.09284278 27.95703125 392.44921875 C25.41967504 394.83302844 22.77013419 396.89568441 20 399 C9.8519106 411.00396568 2.05817068 427.93840538 1.80712891 443.82421875 C1.79106598 444.75709717 1.77500305 445.68997559 1.75845337 446.65112305 C1.71316899 450.9627156 1.67282415 455.27416081 1.64990234 459.5859375 C1.63350895 461.83343988 1.60644592 464.08089388 1.56787109 466.328125 C1.19715353 488.09408136 3.93951237 507.03297075 15 526 C15.57878906 527.01578125 16.15757813 528.0315625 16.75390625 529.078125 C29.97348905 551.03919527 52.67427303 565.41917512 77.26294518 571.56567478 C83.45221674 572.89170782 89.32862225 573.28852333 95.64697266 573.27124023 C97.16607491 573.27908035 97.16607491 573.27908035 98.71586609 573.28707886 C100.89667858 573.29725562 103.07751494 573.30308812 105.25835037 573.30496025 C108.71436988 573.30864742 112.17010846 573.32543627 115.62606812 573.34571838 C125.44564592 573.40092012 135.26526338 573.43184491 145.08496094 573.45629883 C151.10716221 573.47219448 157.12916056 573.5024264 163.15125656 573.54106331 C165.43889586 573.55268643 167.72657144 573.55864342 170.01424026 573.55874443 C173.21364762 573.55893702 176.41249611 573.57724118 179.61181641 573.59936523 C181.01784874 573.59249947 181.01784874 573.59249947 182.45228577 573.585495 C188.30076518 573.64961212 192.63790499 574.63966142 198 577 C198 577.33 198 577.66 198 578 C132.66 578 67.32 578 0 578 C0 387.26 0 196.52 0 0 Z " fill="#F9FAFA" transform="translate(0,0)"/>
<path d="M0 0 C17.45584485 -0.07035109 34.91164491 -0.12311518 52.36759949 -0.15543652 C60.47428145 -0.17084854 68.58087489 -0.19182847 76.6875 -0.22631836 C83.76036806 -0.25639553 90.83317194 -0.27561606 97.90610218 -0.28226548 C101.6447069 -0.28614702 105.38312817 -0.29514802 109.12167358 -0.31719017 C141.31098777 -0.49963018 168.2369181 3.83501194 193 26 C193.62132812 26.53882812 194.24265625 27.07765625 194.8828125 27.6328125 C210.5742143 42.15648207 222.18178687 66.40427756 223.1241985 87.82268846 C223.12362892 89.29562362 223.12362892 89.29562362 223.12304783 90.79831505 C223.12503888 91.93888151 223.12702993 93.07944796 223.12908131 94.25457704 C223.12616847 95.49776724 223.12325563 96.74095744 223.12025452 98.02182007 C223.1206908 99.36343393 223.12156675 100.7050477 223.12284368 102.04666102 C223.12507747 105.72722577 223.12108261 109.40776136 223.11606562 113.0883224 C223.1117453 117.05962418 223.11320867 121.03092432 223.1139679 125.00222778 C223.11449213 131.8807756 223.11135584 138.75931392 223.10573006 145.63785934 C223.09760142 155.58306902 223.09499844 165.5282741 223.09374207 175.47348674 C223.09155369 191.60911746 223.08489942 207.74474312 223.07543945 223.88037109 C223.06625979 239.55419896 223.05918166 255.22802546 223.05493164 270.90185547 C223.05466892 271.8680657 223.05440619 272.83427592 223.05413551 273.82976525 C223.05283047 278.67698052 223.05156676 283.5241958 223.05032361 288.37141109 C223.03995768 328.58094426 223.02234519 368.7904718 223 409 C221.35291784 406.52937676 220.48806891 404.84434618 219.5546875 402.11328125 C219.28648193 401.34741699 219.01827637 400.58155273 218.74194336 399.79248047 C218.45585205 398.97408691 218.16976074 398.15569336 217.875 397.3125 C215.54410521 390.82906077 213.02000883 384.53926983 209.9375 378.375 C209.63376465 377.76180908 209.3300293 377.14861816 209.01708984 376.5168457 C207.64788126 373.85016959 206.32158711 371.40281688 204.44482422 369.05200195 C199.07597938 362.18507879 199.18431309 355.935479 199.25 347.4375 C199.22835516 345.41162884 199.19443709 343.386213 199.15936279 341.36053467 C199.12567842 339.40271264 199.09986759 337.4447602 199.07421875 335.48681641 C198.55360416 311.02820599 189.84469737 288.19754247 172.69921875 270.64453125 C157.30692804 256.0079995 137.29898789 246.11565928 115.94165039 245.48364258 C103.89089979 245.11656858 95.33251199 243.69231697 85.12109375 237.3828125 C80.53468933 234.57994736 75.7160241 232.85956562 70.625 231.1875 C69.7498877 230.89842773 68.87477539 230.60935547 67.97314453 230.31152344 C63.54117368 228.91453355 59.15723062 227.78074698 54.58203125 226.9609375 C53.71690918 226.80471924 52.85178711 226.64850098 51.96044922 226.48754883 C50.32575821 226.21214753 48.68494192 225.97017334 47.03955078 225.76831055 C43.74300945 225.23908904 41.72000054 224.88205541 39.55517578 222.22998047 C36.82769007 217.20652172 36.82769007 217.20652172 37.28364563 214.01390076 C38.29775226 211.16292338 40.38121535 210.13756727 42.76998901 208.4324646 C46.63345919 205.5425679 50.35697313 202.62101939 51.54724121 197.76940918 C51.96905695 191.57001525 50.87181317 185.47549658 49.875 179.375 C49.62482158 177.55950293 49.38128594 175.74307761 49.14453125 173.92578125 C48.78913996 171.22005482 48.42862681 168.51597647 48.04452515 165.81416321 C45.59288053 148.50232257 45.75014034 130.97797148 45.59863281 113.52514648 C45.31281933 82.97513506 40.51058278 58.12445666 18.625 35.3125 C13.68279533 30.4812602 8.16105973 26.20048089 2.03515625 22.9609375 C0.375 22.0625 0.375 22.0625 -2 20 C-2.7095057 15.03346011 -1.80311945 10.64422125 -0.96875 5.71875 C-0.78763672 4.64560547 -0.60652344 3.57246094 -0.41992188 2.46679688 C-0.28134766 1.65275391 -0.14277344 0.83871094 0 0 Z " fill="#225496" transform="translate(308,35)"/>
<path d="M0 0 C1.16940125 -0.00137466 2.33880249 -0.00274933 3.54364014 -0.00416565 C5.44688553 0.00122726 5.44688553 0.00122726 7.38858032 0.00672913 C8.74905393 0.00701144 10.1095277 0.00685239 11.47000122 0.00628662 C15.15136013 0.00600038 18.83268629 0.01186905 22.51403761 0.01886058 C26.36574098 0.02512302 30.21744515 0.0257002 34.06915283 0.02688599 C41.35756631 0.02999078 48.64596473 0.03819269 55.93437159 0.04823548 C64.23422982 0.05942306 72.53408877 0.06491373 80.83395267 0.06993091 C97.90246355 0.08037602 114.9709598 0.09795896 132.03945923 0.12025452 C133.38694769 2.81523144 133.64310819 5.39282109 134.10195923 8.37025452 C134.36686157 10.04861389 134.36686157 10.04861389 134.63711548 11.76087952 C134.76988892 12.86947327 134.90266235 13.97806702 135.03945923 15.12025452 C135.16965454 16.17986389 135.29984985 17.23947327 135.43399048 18.33119202 C135.03945923 21.12025452 135.03945923 21.12025452 132.76602173 22.95619202 C131.7425061 23.46408264 130.71899048 23.97197327 129.66445923 24.49525452 C123.50143764 27.79091035 118.3025296 31.53807087 113.03945923 36.12025452 C112.1190686 36.8975592 112.1190686 36.8975592 111.18008423 37.69056702 C95.16286576 52.31178938 88.55693584 75.14853183 87.03945923 96.12025452 C86.88818778 100.43387649 86.85532594 104.74567503 86.82852173 109.06166077 C86.80259999 111.59536018 86.77587748 114.1290515 86.7484436 116.66273499 C86.73515015 117.9741748 86.72185669 119.28561462 86.7081604 120.63679504 C86.48989804 141.38514461 86.06764798 162.00363204 83.75820923 182.64369202 C83.6421936 183.70322083 83.52617798 184.76274963 83.40664673 185.85438538 C83.14159046 188.21187059 82.85207196 190.56664997 82.54727173 192.91932678 C82.4106311 194.17028137 82.27399048 195.42123596 82.13320923 196.71009827 C81.99592407 197.83794739 81.85863892 198.96579651 81.7171936 200.12782288 C81.74890852 203.31170086 81.74890852 203.31170086 84.35830688 205.50257874 C86.17232282 206.72392583 88.00161419 207.92283687 89.84414673 209.10072327 C92.03945923 211.12025452 92.03945923 211.12025452 92.48477173 214.04603577 C92.19515007 216.82569728 91.76336269 219.4229704 91.03945923 222.12025452 C90.48185913 222.24029846 89.92425903 222.36034241 89.34976196 222.48402405 C70.58347831 226.58234136 54.12047836 232.39957509 38.03945923 243.12025452 C35.47427368 243.39149475 35.47427368 243.39149475 32.40274048 243.42884827 C30.71241699 243.46304871 30.71241699 243.46304871 28.98794556 243.49794006 C27.78807007 243.51767883 26.58819458 243.5374176 25.35195923 243.55775452 C-4.83726961 244.40952559 -29.14704553 253.42879389 -50.51522827 275.36634827 C-64.57795821 291.20376776 -73.09124324 310.43644096 -74.81112671 331.47010803 C-76.07440232 346.54736985 -80.33155265 354.5416959 -90.96054077 365.12025452 C-91.0522601 329.88371872 -91.12266242 294.64720724 -91.16480209 259.41057704 C-91.16980443 255.24283913 -91.17498176 251.07510145 -91.18026733 246.90736389 C-91.18131658 246.07770396 -91.18236582 245.24804402 -91.18344685 244.39324288 C-91.20081329 230.99055721 -91.23233005 217.58794074 -91.26915196 204.18529601 C-91.30666642 190.4148823 -91.32879874 176.64450463 -91.33689475 162.87404191 C-91.34236084 154.3889836 -91.35957302 145.90412095 -91.39220664 137.41912292 C-91.41348453 131.58669646 -91.41971109 125.75436994 -91.41454628 119.92190756 C-91.41200486 116.5656269 -91.41791643 113.2099578 -91.43736267 109.85369301 C-91.54244336 90.76993188 -90.49950281 73.53117434 -81.96054077 56.12025452 C-81.18903687 54.51923889 -81.18903687 54.51923889 -80.40194702 52.88587952 C-76.45733274 45.12419045 -71.79452841 38.56935782 -65.96054077 32.12025452 C-65.18839233 31.26560608 -64.4162439 30.41095764 -63.62069702 29.53041077 C-47.79055465 12.87925615 -23.39658651 -0.02130837 0 0 Z " fill="#225496" transform="translate(91.96054077148438,34.87974548339844)"/>
<path d="M0 0 C6.62376331 3.83255025 10.97831666 9.21270682 13.87109375 16.28125 C16.00679418 24.48620082 15.58680329 33.41013825 11.5625 40.9375 C9.51213875 43.64719038 7.20907972 46.03339175 4.8125 48.4375 C3.53564594 49.75963258 2.25959315 51.08253949 0.984375 52.40625 C0.08041992 53.334375 0.08041992 53.334375 -0.84179688 54.28125 C-2.6070155 56.11344754 -4.28887181 57.99993697 -5.9375 59.9375 C-9.32415344 63.87707646 -12.88431739 67.6488489 -16.4375 71.4375 C-20.57115446 75.84565914 -24.6600283 80.26977908 -28.6015625 84.8515625 C-31.16241935 87.76113177 -33.80163544 90.59594078 -36.4375 93.4375 C-40.22638596 97.52314436 -43.95922113 101.64143561 -47.60546875 105.85546875 C-50.43682491 109.07319334 -53.34647458 112.21882067 -56.24804688 115.37304688 C-59.92150991 119.36812637 -63.55902952 123.39405258 -67.18359375 127.43359375 C-69.63200473 130.15357891 -72.09650079 132.85845561 -74.5625 135.5625 C-79.50310979 140.99565525 -84.36018981 146.48803572 -89.11328125 152.0859375 C-94.66033874 158.60897652 -100.30026051 165.00104727 -106.14941406 171.25488281 C-109.19371758 174.53044973 -112.07716768 177.88281514 -114.875 181.375 C-132.94321111 203.63294122 -132.94321111 203.63294122 -144.99609375 205.2890625 C-151.98623782 205.69336307 -157.20493653 203.66874092 -162.55957031 199.14453125 C-164.76271937 197.04129596 -166.88967936 194.8837613 -169 192.6875 C-169.71607422 191.96175781 -170.43214844 191.23601562 -171.16992188 190.48828125 C-175.15640025 186.41837339 -178.96839031 182.23412294 -182.69311523 177.92480469 C-185.76475885 174.42540945 -188.9824715 171.06431709 -192.1875 167.6875 C-200.93619567 158.42993617 -209.55021383 149.06419462 -218.046875 139.57421875 C-219.83432233 137.60276949 -221.63455484 135.64938739 -223.453125 133.70703125 C-242.34940113 113.51912569 -242.34940113 113.51912569 -242.9375 100.875 C-242.58207671 93.31633129 -239.24762705 86.91424413 -234.109375 81.4453125 C-227.99249581 75.92868781 -222.08068658 75.46469792 -214 75.30859375 C-206.12997813 76.69792875 -200.54519595 82.39275544 -195.12109375 87.92578125 C-194.46093765 88.58781052 -193.80078156 89.24983978 -193.12062073 89.93193054 C-191.73483326 91.32439774 -190.35262635 92.72043676 -188.97387695 94.11987305 C-186.8841636 96.24069996 -184.78401428 98.35071415 -182.68164062 100.45898438 C-181.32750171 101.82229785 -179.97396598 103.18621078 -178.62109375 104.55078125 C-178.00423203 105.17189285 -177.3873703 105.79300446 -176.7518158 106.43293762 C-173.00818579 110.23708843 -169.43913239 114.15321469 -165.95805359 118.19923401 C-164.00912242 120.42721255 -161.93570312 122.50106279 -159.8125 124.5625 C-157.23665133 127.09885525 -154.77723377 129.62958343 -152.5 132.4375 C-150.68346981 134.98340598 -150.68346981 134.98340598 -148.4375 135.9375 C-148.21449219 135.38578125 -147.99148438 134.8340625 -147.76171875 134.265625 C-146.02195903 131.2069324 -143.77985518 129.1301188 -141.25 126.6875 C-137.38423257 122.94608593 -133.7927711 119.09912241 -130.27416992 115.03027344 C-127.17176418 111.49527118 -123.92492306 108.09844798 -120.6875 104.6875 C-112.68473354 96.21925238 -104.78238692 87.67180256 -97 79 C-91.03059492 72.35080502 -84.94661223 65.80756681 -78.87597656 59.25097656 C-73.13224623 53.04572867 -67.41762384 46.81965981 -61.7734375 40.5234375 C-59.05744407 37.51676918 -56.31321837 34.53737368 -53.5625 31.5625 C-53.0569458 31.0156958 -52.5513916 30.4688916 -52.03051758 29.90551758 C-51.00717798 28.79881285 -49.98382185 27.6921234 -48.96044922 26.58544922 C-46.51147667 23.9354709 -44.06651216 21.28185261 -41.625 18.625 C-40.93821167 17.87959961 -40.93821167 17.87959961 -40.23754883 17.11914062 C-37.6703293 14.32211165 -35.18938439 11.47099677 -32.75 8.5625 C-24.11135033 -1.40837516 -12.70386874 -5.88857138 0 0 Z " fill="#002A59" transform="translate(438.4375,325.0625)"/>
<path d="M0 0 C9.26669536 7.59222064 16.27882816 16.49571478 18.875 28.375 C19.6947417 44.42302016 18.20057645 56.68517749 7.22949219 69.26123047 C3.43241354 73.4420672 -0.47782141 77.5119463 -4.40087891 81.57421875 C-6.54825244 83.81707165 -8.62540422 86.11619143 -10.6875 88.4375 C-14.43848133 92.64228626 -18.27321619 96.76287119 -22.125 100.875 C-26.75571601 105.81970443 -31.33711186 110.80007684 -35.8515625 115.8515625 C-38.58337593 118.88378154 -41.35214409 121.88035027 -44.125 124.875 C-48.40233285 129.49575364 -52.63810068 134.15005793 -56.83984375 138.83984375 C-59.45773154 141.74413294 -62.1025513 144.62268972 -64.75 147.5 C-68.3076096 151.36860433 -71.80789755 155.27834333 -75.25 159.25 C-77.67050439 161.99323831 -80.14719415 164.68366914 -82.625 167.375 C-87.79540687 172.99730789 -92.85298325 178.69722201 -97.796875 184.51953125 C-103.34123295 191.03826894 -108.97546556 197.42908986 -114.82373047 203.67700195 C-118.00363189 207.09647063 -121.00779926 210.61021926 -123.9375 214.25 C-130.98725912 222.97344294 -137.99909801 230.33702916 -149.125 233.375 C-160.90595944 234.50094683 -171.09062017 233.70653284 -180.8359375 226.3203125 C-184.5701251 223.07953107 -187.9077146 219.64394301 -191.1171875 215.890625 C-195.89128267 210.38789619 -201.06612365 205.28418878 -206.22436523 200.14526367 C-207.95480137 198.42025287 -209.6797449 196.68987572 -211.40429688 194.95898438 C-212.50488729 193.85905367 -213.60578728 192.75943262 -214.70703125 191.66015625 C-215.47887505 190.88527611 -215.47887505 190.88527611 -216.26631165 190.09474182 C-219.61347662 186.7696601 -221.40802938 185.22607794 -226.125 185.125 C-237.95495275 185.34997533 -250.00557205 191.61079066 -259.7109375 198.10546875 C-271.57082274 204.34246342 -293.43381214 197.52914608 -305.8203125 193.7734375 C-320.9203388 188.96676246 -334.4944588 181.11538069 -347.1875 171.6875 C-366.83767206 157.69011717 -388.71286325 155.70342478 -412.125 154.375 C-409.6724195 151.9224195 -407.66274752 151.38796965 -404.375 150.3125 C-403.34890625 149.97089844 -402.3228125 149.62929688 -401.265625 149.27734375 C-385.80290483 144.83469654 -368.19176846 146.20817327 -353.125 151.375 C-350.79774077 152.06520491 -348.46268833 152.72056518 -346.125 153.375 C-336.58539555 139.61677048 -330.79960106 125.80470666 -327.125 109.375 C-326.898125 108.36179687 -326.67125 107.34859375 -326.4375 106.3046875 C-324.13106993 93.52322087 -324.95022141 80.30592668 -325.125 67.375 C-320.69939636 71.80060364 -319.13097682 79.50706221 -317.125 85.375 C-316.60099609 86.89480469 -316.60099609 86.89480469 -316.06640625 88.4453125 C-309.56179001 111.28927575 -314.57192156 135.70855472 -325.125 156.375 C-325.8571875 157.45394531 -326.589375 158.53289062 -327.34375 159.64453125 C-329.39818871 162.25041803 -329.39818871 162.25041803 -329.125 165.375 C-327.06460231 166.95776004 -325.10691278 168.25907195 -322.875 169.5625 C-322.20895752 169.95397217 -321.54291504 170.34544434 -320.85668945 170.7487793 C-306.92721789 178.66089762 -291.91806972 183.84686038 -276.125 186.375 C-275.0215625 186.5915625 -273.918125 186.808125 -272.78125 187.03125 C-263.08024452 188.1091395 -256.41923061 182.78046799 -248.80078125 177.48828125 C-244.1451872 174.2691679 -239.2428552 171.77372174 -234.125 169.375 C-234.58994873 168.92036377 -235.05489746 168.46572754 -235.53393555 167.99731445 C-239.23931228 164.36196404 -242.72507021 160.60931439 -246.10546875 156.671875 C-248.10241192 154.40069012 -250.16101322 152.1956307 -252.2331543 149.99316406 C-263.38722374 138.0620359 -270.07207015 126.70970203 -269.5078125 109.80078125 C-268.07966378 97.02030752 -262.10181044 88.40990628 -252.5703125 80.203125 C-243.0130481 73.05807749 -233.78159916 71.55313452 -222.125 72.375 C-209.57911894 75.09560618 -201.37019394 83.82028884 -192.65209961 92.64208984 C-191.06739506 94.24504856 -189.4748371 95.83986129 -187.88085938 97.43359375 C-182.95696574 102.3750139 -178.1449957 107.36942012 -173.60717773 112.67236328 C-171.41134633 115.19480246 -169.06858508 117.52653253 -166.6875 119.875 C-165.82253906 120.7309375 -164.95757812 121.586875 -164.06640625 122.46875 C-163.42574219 123.0978125 -162.78507813 123.726875 -162.125 124.375 C-158.08069154 122.80273957 -155.61930313 119.92324687 -152.8125 116.75 C-152.32394531 116.20730469 -151.83539063 115.66460937 -151.33203125 115.10546875 C-148.1858704 111.60141129 -145.08418189 108.05867141 -142 104.5 C-139.10444007 101.21836542 -136.13019902 98.0090938 -133.1652832 94.7902832 C-130.67388198 92.08064461 -128.21346661 89.35248399 -125.8125 86.5625 C-121.75493304 81.87615753 -117.4827815 77.38941626 -113.2434082 72.8684082 C-109.73815112 69.12363536 -106.29985268 65.34073796 -102.953125 61.453125 C-99.92204534 58.00753872 -96.78673548 54.6581191 -93.66748047 51.29248047 C-90.62714317 48.00944709 -87.61064451 44.70806497 -84.625 41.375 C-81.1601012 37.50837381 -77.65193248 33.68488287 -74.125 29.875 C-70.5585697 26.02173144 -67.00903574 22.15581717 -63.5 18.25 C-62.78585937 17.45851563 -62.07171875 16.66703125 -61.3359375 15.8515625 C-59.76285706 14.08949006 -58.20733527 12.3116742 -56.6640625 10.5234375 C-41.81797267 -6.42394505 -20.11393678 -13.88256029 0 0 Z M-52.1953125 29.16015625 C-54.54423817 31.85619037 -56.95498508 34.49299143 -59.375 37.125 C-60.07858643 37.89034058 -60.07858643 37.89034058 -60.79638672 38.67114258 C-61.75920887 39.71782343 -62.72226429 40.76428975 -63.68554688 41.81054688 C-66.00242313 44.32861727 -68.31352945 46.85196833 -70.625 49.375 C-73.39688682 52.39986473 -76.16954714 55.42400604 -78.9453125 58.4453125 C-83.13287779 63.00529978 -87.31057229 67.57235903 -91.4375 72.1875 C-95.87729452 77.13743249 -100.42069136 81.98700788 -104.96533203 86.84033203 C-109.00429937 91.1591304 -112.98758537 95.52209729 -116.9296875 99.9296875 C-121.28649924 104.78264861 -125.70895313 109.57598972 -130.125 114.375 C-130.59808594 114.88933594 -131.07117188 115.40367187 -131.55859375 115.93359375 C-137.5593686 122.454761 -143.58356273 128.95398709 -149.625 135.4375 C-150.2125708 136.06889893 -150.8001416 136.70029785 -151.40551758 137.35083008 C-152.24119263 138.24644653 -152.24119263 138.24644653 -153.09375 139.16015625 C-153.61582031 139.71977051 -154.13789063 140.27938477 -154.67578125 140.85595703 C-155.92583882 142.16624312 -157.22448139 143.42985958 -158.53125 144.68359375 C-160.35359468 146.2302713 -160.35359468 146.2302713 -160.125 148.375 C-164.33243255 145.09115021 -167.75097247 141.60564602 -171.20703125 137.546875 C-173.90060847 134.49671423 -176.79917092 131.67617747 -179.71875 128.84375 C-181.5899196 126.92397859 -183.32195159 124.99278728 -185.05859375 122.95703125 C-190.06665097 117.19029977 -195.46953097 111.80764151 -200.85913086 106.40063477 C-202.69394147 104.55602412 -204.5178048 102.70100417 -206.34179688 100.84570312 C-207.52017413 99.6608024 -208.69918857 98.47653492 -209.87890625 97.29296875 C-210.4165712 96.742957 -210.95423615 96.19294525 -211.50819397 95.62626648 C-216.71830129 90.44637297 -221.43776923 87.94233765 -228.9375 87.875 C-236.55345951 88.05958068 -241.29834858 89.90235598 -246.8984375 94.984375 C-251.89260556 100.2952464 -254.21029638 105.9900609 -254.5625 113.25 C-253.94498053 129.40430926 -240.34017076 140.40840008 -229.9609375 151.32421875 C-226.32083728 155.15557848 -222.76763038 159.05599018 -219.25 163 C-214.92345592 167.83554927 -210.51857834 172.60040673 -206.125 177.375 C-205.65191406 177.88933594 -205.17882812 178.40367187 -204.69140625 178.93359375 C-201.17610935 182.75374025 -197.65266158 186.56627097 -194.125 190.375 C-193.54782227 190.99874512 -192.97064453 191.62249023 -192.37597656 192.26513672 C-188.8328695 196.09088753 -185.27713557 199.90414977 -181.70117188 203.69921875 C-180.28953196 205.20007011 -178.88638204 206.70889626 -177.484375 208.21875 C-171.8526255 214.11867805 -167.699528 217.36832718 -159.3125 217.8125 C-152.14290925 217.55099517 -145.78426975 215.31769865 -140.5625 210.3125 C-137.10123151 206.52196931 -133.93497903 202.47481982 -130.71875 198.4765625 C-126.74658964 193.64293203 -122.39745085 189.14452464 -118.12109375 184.58203125 C-113.75509707 179.92308681 -109.59324167 175.10429197 -105.4609375 170.23828125 C-99.85723947 163.65144594 -94.16910108 157.17751914 -88.2746582 150.84887695 C-85.6788359 148.06143686 -83.11524276 145.25716958 -80.625 142.375 C-77.06816962 138.26295707 -73.36916316 134.2873038 -69.67456055 130.29956055 C-65.10888326 125.3683435 -60.60843239 120.38109118 -56.125 115.375 C-54.62543381 113.707943 -53.12542947 112.04128005 -51.625 110.375 C-49.39670886 107.89997766 -47.1692116 105.42428246 -44.9453125 102.9453125 C-40.3975104 97.87961123 -35.81527032 92.84694274 -31.20922852 87.83422852 C-27.61394297 83.91808081 -24.05817748 79.96813087 -20.51171875 76.0078125 C-18.73681996 74.0499045 -16.94972781 72.10928154 -15.14453125 70.1796875 C-0.62551334 55.1114449 -0.62551334 55.1114449 3.31640625 35.0546875 C2.41699951 27.55697824 -0.99597659 20.93823536 -6.5625 15.8125 C-25.31353464 2.02377821 -39.66706462 14.5823563 -52.1953125 29.16015625 Z " fill="#F8F9FA" transform="translate(450.125,312.625)"/>
<path d="M0 0 C22.44 0 44.88 0 68 0 C66.24578314 14.03373486 64.5007581 27.98384069 62.26513672 41.93603516 C61.86258734 44.45259855 61.46814085 46.9703543 61.07421875 49.48828125 C60.81817098 51.10424004 60.56167958 52.72012862 60.3046875 54.3359375 C60.18801727 55.08152924 60.07134705 55.82712097 59.95114136 56.5953064 C59.11525815 61.7694837 59.11525815 61.7694837 58 64 C58.81791016 64.23783203 58.81791016 64.23783203 59.65234375 64.48046875 C78.40729639 70.28328316 91.460327 83.12135134 100.66796875 100.0703125 C104.7539202 108.28257048 108 117.69208189 108 127 C103.96263281 125.71487462 100.13496935 124.2364202 96.2890625 122.4609375 C95.21793213 121.9673877 94.14680176 121.47383789 93.04321289 120.96533203 C91.91520264 120.44052246 90.78719238 119.91571289 89.625 119.375 C87.86627563 118.55878174 87.86627563 118.55878174 86.07202148 117.72607422 C80.04060847 114.91582794 74.01969678 112.08963749 68.0625 109.125 C67.47033691 108.83802246 66.87817383 108.55104492 66.26806641 108.25537109 C61.89787693 106.09230238 57.7556598 103.65248229 53.58984375 101.1171875 C41.67664694 93.12728379 41.67664694 93.12728379 28.33984375 91.53125 C24.82853917 93.02440671 21.88982604 95.182429 18.91748047 97.55078125 C15.52262239 100.11659199 11.74339919 101.99613388 8 104 C6.4741109 104.85211146 4.94935942 105.70626345 3.42578125 106.5625 C-6.9611885 112.32928433 -17.7249423 117.37404521 -28.4375 122.5 C-29.36860596 122.94601563 -30.29971191 123.39203125 -31.2590332 123.8515625 C-32.12101318 124.26148437 -32.98299316 124.67140625 -33.87109375 125.09375 C-34.64380615 125.46177734 -35.41651855 125.82980469 -36.21264648 126.20898438 C-38 127 -38 127 -39 127 C-40.21045784 111.86927705 -32.47382399 96.12054843 -22.86474609 84.78125 C-14.07388604 75.00786511 -3.43796838 68.26811938 9 64 C8.45794833 56.14544057 7.53686266 48.47110997 6.15234375 40.72265625 C5.97619034 39.70827988 5.80003693 38.6939035 5.61854553 37.64878845 C5.0631548 34.45246911 4.5010482 31.25739039 3.9375 28.0625 C3.37077591 24.8425534 2.80566781 21.6223661 2.2457428 18.40122986 C1.89924916 16.40830139 1.5488704 14.41604337 1.19407654 12.42457581 C1.03713821 11.52271042 0.88019989 10.62084503 0.71850586 9.69165039 C0.57940292 8.90399796 0.44029999 8.11634552 0.29698181 7.30482483 C0 5 0 5 0 0 Z " fill="#012A59" transform="translate(232,0)"/>
<path d="M0 0 C1.13901512 -0.00642769 1.13901512 -0.00642769 2.30104065 -0.01298523 C3.90389002 -0.01871708 5.50676541 -0.01923723 7.10961914 -0.01489258 C9.55465317 -0.01173393 11.99847494 -0.03519981 14.44335938 -0.06054688 C16.00390473 -0.06282022 17.56445332 -0.0635232 19.125 -0.0625 C19.85222763 -0.07170975 20.57945526 -0.08091949 21.32872009 -0.09040833 C24.44177871 -0.06220128 27.13631471 0.30304917 30.11401367 1.21459961 C32.47616929 3.66033083 32.46144745 4.31101734 32.58544922 7.60107422 C32.53723086 9.41580528 32.4640831 11.22998039 32.37109375 13.04296875 C32.32246893 15.01561401 32.27430623 16.98827071 32.2265625 18.9609375 C32.12090993 22.07105439 32.00372059 25.18028297 31.87548828 28.28955078 C31.76073979 31.29062859 31.68898635 34.29051971 31.62109375 37.29296875 C31.56927948 38.22019745 31.51746521 39.14742615 31.46408081 40.10275269 C31.30741142 44.9492379 31.30741142 44.9492379 33.59747314 49.02911377 C36.84021341 51.48383212 38.53560121 52.29037239 42.69140625 52.36328125 C46.67097422 51.13323297 49.01969336 50.1072557 52.12890625 47.30078125 C52.91990007 44.07059749 52.70889873 40.94776797 52.5390625 37.64453125 C52.51871445 36.7052478 52.49836639 35.76596436 52.47740173 34.79821777 C52.41073428 31.79748105 52.30509983 28.80008041 52.19140625 25.80078125 C52.08300514 22.80160388 51.98381029 19.80373143 51.91612244 16.80334473 C51.87379737 14.93732036 51.80801561 13.07164824 51.71632385 11.20739746 C51.57165685 4.99627225 51.57165685 4.99627225 54.19360352 1.72387695 C57.81963669 -0.03409921 60.34475918 -0.17123567 64.37109375 -0.125 C65.05769073 -0.12171188 65.74428772 -0.11842377 66.45169067 -0.11503601 C68.63641551 -0.09935928 70.81958162 -0.05538594 73.00390625 -0.01171875 C74.46352902 -0.00021673 75.92316641 0.00956528 77.3828125 0.01757812 C95.01334988 0.18522488 95.01334988 0.18522488 98.12890625 3.30078125 C98.12890625 9.02297313 97.08919268 12.51129055 93.14453125 16.6953125 C85.65466344 22.6610793 77.40057334 24.45530903 68.12890625 24.30078125 C68.26167969 25.4403125 68.39445312 26.57984375 68.53125 27.75390625 C69.74431867 38.46514206 70.70921274 49.14509485 71.01904297 59.92236328 C71.10323104 62.51124013 71.20838072 65.09585839 71.32861328 67.68310547 C71.51647508 71.81806923 71.64478022 75.95214807 71.74359131 80.09014893 C71.7918231 81.76144319 71.85740007 83.43233407 71.940979 85.10223389 C72.58884187 98.49910041 72.58884187 98.49910041 69.04296875 102.875 C66.45818732 104.73172824 64.0541723 106.05878518 61.12890625 107.30078125 C59.70904419 107.93947144 59.70904419 107.93947144 58.26049805 108.59106445 C48.86346509 112.65758997 39.43311701 114.04331015 29.50390625 110.73828125 C23.91595579 108.47223739 15.93376521 104.91049916 13.12890625 99.30078125 C13.02571037 96.60251252 12.98774686 93.93662528 13.00390625 91.23828125 C13.00801514 90.3968457 13.01212402 89.55541016 13.01635742 88.68847656 C13.19877361 67.08883086 14.85443236 45.76385521 17.12890625 24.30078125 C16.55172852 24.32688477 15.97455078 24.35298828 15.37988281 24.37988281 C10.34093417 24.51122487 6.56216002 24.12944469 1.87890625 22.05078125 C0.904375 21.633125 -0.07015625 21.21546875 -1.07421875 20.78515625 C-7.20396265 17.53194021 -10.66032737 13.84204883 -12.87109375 7.30078125 C-12.87109375 4.42578125 -12.87109375 4.42578125 -11.87109375 2.30078125 C-8.24250669 -0.27301678 -4.27300774 -0.00534034 0 0 Z " fill="#F9F9FA" transform="translate(223.87109375,147.69921875)"/>
<path d="M0 0 C0.66 0.33 1.32 0.66 2 1 C0.85657478 3.31371943 -0.28961064 5.62599677 -1.4375 7.9375 C-1.76298828 8.59685547 -2.08847656 9.25621094 -2.42382812 9.93554688 C-4.88671875 14.88671875 -4.88671875 14.88671875 -6 16 C33.27 16.33 72.54 16.66 113 17 C113 17.33 113 17.66 113 18 C94.52 18.33 76.04 18.66 57 19 C57 19.33 57 19.66 57 20 C47.57094908 20.98883244 38.20333665 21.13211912 28.734375 21.09765625 C27.20452928 21.09578621 25.67468296 21.09436509 24.14483643 21.09336853 C20.15995569 21.0895894 16.17511265 21.07979966 12.19024658 21.06866455 C8.10730499 21.05835022 4.02435718 21.05384965 -0.05859375 21.04882812 C-8.03907961 21.03817224 -16.01953509 21.02115269 -24 21 C-19.67271902 15.49491737 -19.67271902 15.49491737 -16.6875 13.46484375 C-16.08679688 13.04783203 -15.48609375 12.63082031 -14.8671875 12.20117188 C-14.25101562 11.78416016 -13.63484375 11.36714844 -13 10.9375 C-8.96669011 8.18252996 -5.4603426 5.46835265 -2 2 C-1.34 2 -0.68 2 0 2 C0 1.34 0 0.68 0 0 Z " fill="#E6EAEE" transform="translate(288,557)"/>
<path d="M0 0 C2.69942325 2.69942325 3.64072291 5.87982824 5 9.375 C15.02127191 34.29779147 28.32765673 60.04028369 44.8046875 81.33203125 C46 83 46 83 46 85 C26.61653003 75.97149633 15.35628746 47.84870381 8 29 C0 6.72685762 0 6.72685762 0 0 Z " fill="#F3F5F6" transform="translate(204,221)"/>
<path d="M0 0 C12.2482593 -0.06959716 24.49647133 -0.12286072 36.74488831 -0.15543652 C42.43269856 -0.17107349 48.12037323 -0.192276 53.80810547 -0.22631836 C59.29998096 -0.25898172 64.79172626 -0.27686782 70.28369141 -0.28463173 C72.3759974 -0.29016269 74.4682965 -0.3009633 76.56054688 -0.31719017 C79.49755088 -0.33905697 82.43402107 -0.34196303 85.37109375 -0.34057617 C86.2306517 -0.351362 87.09020966 -0.36214783 87.97581482 -0.3732605 C93.63296134 -0.34447014 97.8060315 0.73985967 103 3 C103 3.33 103 3.66 103 4 C93.83334951 4.03046799 84.66669282 4.05092849 75.5 4.0625 C74.82663479 4.06335602 74.15326958 4.06421204 73.45949936 4.06509399 C52.95735979 4.08813843 32.48430392 3.93962404 12 3 C12 2.67 12 2.34 12 2 C8.04 1.67 4.08 1.34 0 1 C0 0.67 0 0.34 0 0 Z " fill="#DEE4EA" transform="translate(95,574)"/>
<path d="M0 0 C1.01578125 -0.03222656 2.0315625 -0.06445312 3.078125 -0.09765625 C9.3673225 -0.10582404 12.93726313 0.71440736 17.50244141 5.13916016 C18.625 6.625 18.625 6.625 18.625 8.625 C6.415 8.625 -5.795 8.625 -18.375 8.625 C-14.06796818 0.01093637 -8.88016748 -0.05592045 0 0 Z " fill="#012F5D" transform="translate(264.375,213.375)"/>
<path d="M0 0 C67.815 0.495 67.815 0.495 137 1 C137 2.65 137 4.3 137 6 C136.67 4.68 136.34 3.36 136 2 C90.79 2.33 45.58 2.66 -1 3 C-0.67 2.01 -0.34 1.02 0 0 Z " fill="#2C5F9C" transform="translate(86,35)"/>
<path d="M0 0 C1.56137695 -0.02320313 1.56137695 -0.02320313 3.15429688 -0.046875 C4.15654297 -0.04171875 5.15878906 -0.0365625 6.19140625 -0.03125 C7.55761108 -0.02448242 7.55761108 -0.02448242 8.95141602 -0.01757812 C12.14070356 0.64640003 13.36255024 2.05938162 15.4375 4.5 C14.4475 4.17 13.4575 3.84 12.4375 3.5 C10.51843083 3.41733514 8.59660526 3.39259337 6.67578125 3.40234375 C4.99838867 3.40717773 4.99838867 3.40717773 3.28710938 3.41210938 C2.11986328 3.42048828 0.95261719 3.42886719 -0.25 3.4375 C-1.42884766 3.44201172 -2.60769531 3.44652344 -3.82226562 3.45117188 C-6.73572789 3.46296727 -9.64908863 3.4794273 -12.5625 3.5 C-12.5625 4.16 -12.5625 4.82 -12.5625 5.5 C-6.6225 5.5 -0.6825 5.5 5.4375 5.5 C5.4375 5.83 5.4375 6.16 5.4375 6.5 C2.75056278 6.83851178 0.06309711 7.170936 -2.625 7.5 C-3.75325195 7.64308594 -3.75325195 7.64308594 -4.90429688 7.7890625 C-9.49671317 8.34571902 -13.9367135 8.59829028 -18.5625 8.5 C-15.10152238 -0.30976122 -8.29644953 -0.12375065 0 0 Z " fill="#031441" transform="translate(264.5625,213.5)"/>
<path d="M0 0 C2.85178684 2.85178684 3.90999595 6.37470416 5.375 10.0625 C5.99775344 11.60454843 6.62144426 13.14621864 7.24609375 14.6875 C7.54628418 15.43 7.84647461 16.1725 8.15576172 16.9375 C9.68191664 20.66594326 11.33311209 24.3328466 13 28 C12.34 28 11.68 28 11 28 C11 28.99 11 29.98 11 31 C11.66 31 12.32 31 13 31 C12 33 12 33 10 34 C8.56811702 29.80336426 7.14419833 25.60413585 5.72753906 21.40234375 C5.24468496 19.97387337 4.75967741 18.546129 4.27246094 17.11914062 C3.57176866 15.06568326 2.87890964 13.0097236 2.1875 10.953125 C1.76855469 9.71723633 1.34960938 8.48134766 0.91796875 7.20800781 C0 4 0 4 0 0 Z " fill="#EFF2F4" transform="translate(204,221)"/>
<path d="M0 0 C2.73949307 3.28739169 5.26584559 6.70565274 7.75 10.1875 C8.67039063 11.47720703 8.67039063 11.47720703 9.609375 12.79296875 C11 15 11 15 11 17 C4.69571469 14.13698005 -0.95784689 9.27444079 -4 3 C-2.68 2.01 -1.36 1.02 0 0 Z " fill="#EDF1F3" transform="translate(239,289)"/>
<path d="M0 0 C3 1 3 1 4.421875 3.2578125 C7.09012541 9.01809427 8.79381539 12.79063903 7 19 C4.69895986 16.87748883 3.18105541 14.84451444 1.75 12.0625 C1.39421875 11.39347656 1.0384375 10.72445313 0.671875 10.03515625 C-0.12944646 7.60789765 0.27419345 6.40034593 1 4 C0.67 3.67 0.34 3.34 0 3 C0 2.01 0 1.02 0 0 Z " fill="#F7F9FA" transform="translate(215,249)"/>
<path d="M0 0 C0.33 0 0.66 0 1 0 C1 6.93 1 13.86 1 21 C0.67 21 0.34 21 0 21 C-0.33 19.02 -0.66 17.04 -1 15 C-1.99 14.67 -2.98 14.34 -4 14 C-4.33 14.99 -4.66 15.98 -5 17 C-5.33 16.34 -5.66 15.68 -6 15 C-5.09239638 12.40267775 -4.12932108 9.90549025 -3.0625 7.375 C-2.77181641 6.66859375 -2.48113281 5.9621875 -2.18164062 5.234375 C-1.46132512 3.48672427 -0.73154306 1.74298085 0 0 Z " fill="#F0F3F6" transform="translate(327,222)"/>
<path d="M0 0 C4.10110762 1.40398279 6.98089159 3.37087038 10.3125 6.125 C11.19550781 6.84945313 12.07851562 7.57390625 12.98828125 8.3203125 C13.65214844 8.87460937 14.31601563 9.42890625 15 10 C14.01 10.495 14.01 10.495 13 11 C10.56442428 10.09176973 8.23804483 9.13171929 5.875 8.0625 C5.21628906 7.77181641 4.55757812 7.48113281 3.87890625 7.18164062 C2.24950495 6.46139802 0.62433868 5.73158857 -1 5 C-0.67 3.35 -0.34 1.7 0 0 Z " fill="#EFF3F5" transform="translate(154,293)"/>
<path d="M0 0 C0.33 0 0.66 0 1 0 C1.33 2.64 1.66 5.28 2 8 C2.33 7.01 2.66 6.02 3 5 C5.0625 3.8125 5.0625 3.8125 7 3 C5.48109469 7.55671592 3.04597738 11.31723292 0 15 C-0.33 15 -0.66 15 -1 15 C-1.02685412 12.68756208 -1.04632841 10.3750373 -1.0625 8.0625 C-1.07410156 6.77472656 -1.08570312 5.48695313 -1.09765625 4.16015625 C-1 1 -1 1 0 0 Z " fill="#164089" transform="translate(2,385)"/>
<path d="M0 0 C-0.56536994 3.27914568 -1.3703012 4.93380808 -4 7 C-4.763125 7.268125 -5.52625 7.53625 -6.3125 7.8125 C-10.09611139 9.48432829 -12.18267795 11.9861206 -15 15 C-15.66 14.67 -16.32 14.34 -17 14 C-15.44073252 12.41348318 -13.87743482 10.83092685 -12.3125 9.25 C-11.44238281 8.36828125 -10.57226562 7.4865625 -9.67578125 6.578125 C-2.84848485 0 -2.84848485 0 0 0 Z " fill="#071B46" transform="translate(67,307)"/>
<path d="M0 0 C0.33 0.99 0.66 1.98 1 3 C-10.385 2.505 -10.385 2.505 -22 2 C-22 1.67 -22 1.34 -22 1 C-20.95199219 0.93941406 -19.90398437 0.87882813 -18.82421875 0.81640625 C-17.44529952 0.73198262 -16.06639395 0.64733553 -14.6875 0.5625 C-13.99720703 0.52318359 -13.30691406 0.48386719 -12.59570312 0.44335938 C-0.75123956 -0.30049582 -0.75123956 -0.30049582 0 0 Z " fill="#0E2551" transform="translate(282,219)"/>
<path d="M0 0 C0.515625 0.45375 1.03125 0.9075 1.5625 1.375 C4.57300574 3.38200383 7.50927237 4.12731809 11 5 C11 5.33 11 5.66 11 6 C13.97 6.495 13.97 6.495 17 7 C17 7.33 17 7.66 17 8 C8.89364595 8.68184286 3.71972553 7.64573617 -3 3 C-2.01 2.67 -1.02 2.34 0 2 C0 1.34 0 0.68 0 0 Z " fill="#3B6BA6" transform="translate(400,271)"/>
<path d="M0 0 C0.33 0 0.66 0 1 0 C3.01454482 5.72838126 3.10977288 10.42146856 2.625 16.4375 C2.56828125 17.26443359 2.5115625 18.09136719 2.453125 18.94335938 C2.31303232 20.96302888 2.15805019 22.98165637 2 25 C1.67 25 1.34 25 1 25 C0.04541351 16.64736824 -0.11039334 8.40215965 0 0 Z " fill="#03103A" transform="translate(293,177)"/>
<path d="M0 0 C0.33 0.66 0.66 1.32 1 2 C0.0625 4.625 0.0625 4.625 -1 7 C-0.24074219 6.77183594 0.51851563 6.54367187 1.30078125 6.30859375 C2.79158203 5.87740234 2.79158203 5.87740234 4.3125 5.4375 C5.29863281 5.14746094 6.28476562 4.85742188 7.30078125 4.55859375 C10 4 10 4 13 5 C10.92085336 5.70005949 8.83648414 6.38462244 6.75 7.0625 C5.58984375 7.44535156 4.4296875 7.82820312 3.234375 8.22265625 C0 9 0 9 -4 8 C-2.68 5.36 -1.36 2.72 0 0 Z " fill="#0C153A" transform="translate(447,565)"/>
<path d="M0 0 C0.66 0.99 1.32 1.98 2 3 C-0.31 5.31 -2.62 7.62 -5 10 C-5.99 9.67 -6.98 9.34 -8 9 C-6.85459775 7.68712379 -5.70866567 6.37470979 -4.5625 5.0625 C-3.92441406 4.33160156 -3.28632813 3.60070312 -2.62890625 2.84765625 C-1.77458541 1.87860647 -0.91348825 0.91348825 0 0 Z " fill="#05204A" transform="translate(353,496)"/>
<path d="M0 0 C2.20541388 2.20541388 2.9973448 3.94667501 4.1875 6.8125 C4.55230469 7.66457031 4.91710937 8.51664063 5.29296875 9.39453125 C6.09097298 12.33524297 5.81811708 14.0975082 5 17 C3.14670366 14.22005549 2.31436395 12.21743449 1.375 9.0625 C1.11460937 8.20785156 0.85421875 7.35320312 0.5859375 6.47265625 C0 4 0 4 0 0 Z " fill="#DEE5EB" transform="translate(204,221)"/>
<path d="M0 0 C-0.8125 1.9375 -0.8125 1.9375 -2 4 C-2.99 4.33 -3.98 4.66 -5 5 C-3.35 5.99 -1.7 6.98 0 8 C-0.99 8.495 -0.99 8.495 -2 9 C-4.4750171 7.88568235 -6.67883419 6.41849022 -9 5 C-6.45523312 2.20075644 -3.92372883 0 0 0 Z " fill="#0C1E46" transform="translate(153,282)"/>
<path d="M0 0 C-1.7015625 0.4021875 -1.7015625 0.4021875 -3.4375 0.8125 C-4.613125 1.204375 -5.78875 1.59625 -7 2 C-7.33 2.99 -7.66 3.98 -8 5 C-9.65 5.33 -11.3 5.66 -13 6 C-13.33 5.01 -13.66 4.02 -14 3 C-12.23358317 2.3012307 -10.46167336 1.61633417 -8.6875 0.9375 C-7.20830078 0.36322266 -7.20830078 0.36322266 -5.69921875 -0.22265625 C-3 -1 -3 -1 0 0 Z " fill="#091F48" transform="translate(169,277)"/>
<path d="M0 0 C0.33 0.99 0.66 1.98 1 3 C0.34 3 -0.32 3 -1 3 C-1 3.99 -1 4.98 -1 6 C-0.34 6 0.32 6 1 6 C0 8 0 8 -2 9 C-3.25664978 6.09399739 -4 4.20395416 -4 1 C-2 0 -2 0 0 0 Z " fill="#E9ECF1" transform="translate(216,246)"/>
<path d="M0 0 C0.66 0 1.32 0 2 0 C2.33 1.65 2.66 3.3 3 5 C3.33 5 3.66 5 4 5 C4 7.31 4 9.62 4 12 C3.01 12 2.02 12 1 12 C0.67 8.04 0.34 4.08 0 0 Z " fill="#163B66" transform="translate(338,179)"/>
<path d="M0 0 C0.33 0.66 0.66 1.32 1 2 C0.22265625 4.1640625 0.22265625 4.1640625 -0.9375 6.625 C-1.31777344 7.44226563 -1.69804688 8.25953125 -2.08984375 9.1015625 C-2.39019531 9.72804688 -2.69054687 10.35453125 -3 11 C-3.66 11 -4.32 11 -5 11 C-5.33 11.66 -5.66 12.32 -6 13 C-5.51675181 7.84535266 -2.81389239 4.18449681 0 0 Z " fill="#05153D" transform="translate(128,462)"/>
<path d="M0 0 C1.2065625 0.0309375 1.2065625 0.0309375 2.4375 0.0625 C1.4475 0.3925 0.4575 0.7225 -0.5625 1.0625 C-0.5625 3.7025 -0.5625 6.3425 -0.5625 9.0625 C-1.5525 8.7325 -2.5425 8.4025 -3.5625 8.0625 C-3.60491723 5.72955225 -3.60342937 3.39547433 -3.5625 1.0625 C-2.5625 0.0625 -2.5625 0.0625 0 0 Z " fill="#133A66" transform="translate(295.5625,173.9375)"/>
<path d="M0 0 C3.73487777 0.4979837 5.81237635 0.87491756 9 3 C5.7 3 2.4 3 -1 3 C-0.67 2.01 -0.34 1.02 0 0 Z " fill="#F0F2F5" transform="translate(189,575)"/>
<path d="M0 0 C1.65 0 3.3 0 5 0 C5.1875 3.375 5.1875 3.375 5 7 C4.01 7.66 3.02 8.32 2 9 C2 6.36 2 3.72 2 1 C1.34 0.67 0.68 0.34 0 0 Z " fill="#163A65" transform="translate(236,174)"/>
<path d="M0 0 C2.72869407 0.03287583 5.2966618 0.56397771 8 1 C7.67 1.66 7.34 2.32 7 3 C4.03 2.67 1.06 2.34 -2 2 C-1.34 1.34 -0.68 0.68 0 0 Z " fill="#18478E" transform="translate(358,258)"/>
<path d="M0 0 C0.33 0 0.66 0 1 0 C1.33 2.97 1.66 5.94 2 9 C0.68 8.34 -0.64 7.68 -2 7 C-1.34 4.69 -0.68 2.38 0 0 Z " fill="#E7EEF1" transform="translate(427,469)"/>
<path d="M0 0 C1.65 1.65 3.3 3.3 5 5 C4.67 5.66 4.34 6.32 4 7 C2.68 6.67 1.36 6.34 0 6 C-1.125 2.25 -1.125 2.25 0 0 Z " fill="#2D5D9C" transform="translate(172,235)"/>
<path d="M0 0 C1.5625 1.8125 1.5625 1.8125 3 4 C2.67 4.99 2.34 5.98 2 7 C1.34 7 0.68 7 0 7 C-0.38133299 5.0085944 -0.71325582 3.00720923 -1 1 C-0.67 0.67 -0.34 0.34 0 0 Z " fill="#F7FAFB" transform="translate(210,236)"/>
</svg>
